<?xml version='1.0' encoding='utf-8'?>
<svg xmlns="http://www.w3.org/2000/svg" width="640" height="400" viewBox="0 0 640 400"><line x1="60.00" y1="60.00" x2="60.00" y2="360.00" stroke="black" stroke-width="1.00" /><line x1="60.00" y1="360.00" x2="580.00" y2="360.00" stroke="black" stroke-width="1.00" /><line x1="60.00" y1="360.00" x2="60.00" y2="365.00" stroke="black" stroke-width="1.00" /><text x="50.00" y="380.00" font-size="12" font-family="Arial, sans-serif">0</text><line x1="190.00" y1="360.00" x2="190.00" y2="365.00" stroke="black" stroke-width="1.00" /><text x="180.00" y="380.00" font-size="12" font-family="Arial, sans-serif">4</text><line x1="320.00" y1="360.00" x2="320.00" y2="365.00" stroke="black" stroke-width="1.00" /><text x="310.00" y="380.00" font-size="12" font-family="Arial, sans-serif">8</text><line x1="450.00" y1="360.00" x2="450.00" y2="365.00" stroke="black" stroke-width="1.00" /><text x="440.00" y="380.00" font-size="12" font-family="Arial, sans-serif">11</text><line x1="580.00" y1="360.00" x2="580.00" y2="365.00" stroke="black" stroke-width="1.00" /><text x="570.00" y="380.00" font-size="12" font-family="Arial, sans-serif">15</text><line x1="55.00" y1="394.07" x2="60.00" y2="394.07" stroke="black" stroke-width="1.00" /><text x="10.00" y="399.07" font-size="12" font-family="Arial, sans-serif">1e-2</text><line x1="55.00" y1="283.51" x2="60.00" y2="283.51" stroke="black" stroke-width="1.00" /><text x="10.00" y="288.51" font-size="12" font-family="Arial, sans-serif">1e-1</text><line x1="55.00" y1="172.95" x2="60.00" y2="172.95" stroke="black" stroke-width="1.00" /><text x="10.00" y="177.95" font-size="12" font-family="Arial, sans-serif">1e0</text><line x1="55.00" y1="62.39" x2="60.00" y2="62.39" stroke="black" stroke-width="1.00" /><text x="10.00" y="67.39" font-size="12" font-family="Arial, sans-serif">1e1</text><line x1="55.00" y1="-48.17" x2="60.00" y2="-48.17" stroke="black" stroke-width="1.00" /><text x="10.00" y="-43.17" font-size="12" font-family="Arial, sans-serif">1e2</text><path d="M 60.00,253.09 94.67,262.22 129.33,272.36 164.00,284.04 198.67,298.07 233.33,315.87 268.00,339.27 302.67,360.00 337.33,345.63 372.00,323.65 406.67,307.40 441.33,295.28 476.00,285.78 510.67,278.04 545.33,271.56 580.00,266.00" fill="none" stroke="#1f77b4" stroke-width="2.5" /><circle cx="60.00" cy="253.09" r="3.00" fill="#1f77b4" /><circle cx="94.67" cy="262.22" r="3.00" fill="#1f77b4" /><circle cx="129.33" cy="272.36" r="3.00" fill="#1f77b4" /><circle cx="164.00" cy="284.04" r="3.00" fill="#1f77b4" /><circle cx="198.67" cy="298.07" r="3.00" fill="#1f77b4" /><circle cx="233.33" cy="315.87" r="3.00" fill="#1f77b4" /><circle cx="268.00" cy="339.27" r="3.00" fill="#1f77b4" /><circle cx="302.67" cy="360.00" r="3.00" fill="#1f77b4" /><circle cx="337.33" cy="345.63" r="3.00" fill="#1f77b4" /><circle cx="372.00" cy="323.65" r="3.00" fill="#1f77b4" /><circle cx="406.67" cy="307.40" r="3.00" fill="#1f77b4" /><circle cx="441.33" cy="295.28" r="3.00" fill="#1f77b4" /><circle cx="476.00" cy="285.78" r="3.00" fill="#1f77b4" /><circle cx="510.67" cy="278.04" r="3.00" fill="#1f77b4" /><circle cx="545.33" cy="271.56" r="3.00" fill="#1f77b4" /><circle cx="580.00" cy="266.00" r="3.00" fill="#1f77b4" /><path d="M 60.00,243.13 94.67,245.86 129.33,248.33 164.00,250.48 198.67,252.23 233.33,253.53 268.00,254.34 302.67,254.67 337.33,254.52 372.00,253.93 406.67,252.99 441.33,251.74 476.00,250.26 510.67,248.62 545.33,246.87 580.00,245.06" fill="none" stroke="#2ca02c" stroke-width="2.4" stroke-dasharray="6,4" /><rect x="57.00" y="240.13" width="6.00" height="6.00" fill="#2ca02c" /><rect x="91.67" y="242.86" width="6.00" height="6.00" fill="#2ca02c" /><rect x="126.33" y="245.33" width="6.00" height="6.00" fill="#2ca02c" /><rect x="161.00" y="247.48" width="6.00" height="6.00" fill="#2ca02c" /><rect x="195.67" y="249.23" width="6.00" height="6.00" fill="#2ca02c" /><rect x="230.33" y="250.53" width="6.00" height="6.00" fill="#2ca02c" /><rect x="265.00" y="251.34" width="6.00" height="6.00" fill="#2ca02c" /><rect x="299.67" y="251.67" width="6.00" height="6.00" fill="#2ca02c" /><rect x="334.33" y="251.52" width="6.00" height="6.00" fill="#2ca02c" /><rect x="369.00" y="250.93" width="6.00" height="6.00" fill="#2ca02c" /><rect x="403.67" y="249.99" width="6.00" height="6.00" fill="#2ca02c" /><rect x="438.33" y="248.74" width="6.00" height="6.00" fill="#2ca02c" /><rect x="473.00" y="247.26" width="6.00" height="6.00" fill="#2ca02c" /><rect x="507.67" y="245.62" width="6.00" height="6.00" fill="#2ca02c" /><rect x="542.33" y="243.87" width="6.00" height="6.00" fill="#2ca02c" /><rect x="577.00" y="242.06" width="6.00" height="6.00" fill="#2ca02c" /><path d="M 60.00,152.50 94.67,152.50 129.33,152.50 164.00,152.50 198.67,152.50 233.33,152.50 268.00,152.50 302.67,152.50 337.33,152.50 372.00,152.50 406.67,152.50 441.33,152.50 476.00,152.50 510.67,152.50 545.33,152.50 580.00,152.50" fill="none" stroke="#9467bd" stroke-width="2.4" stroke-dasharray="2,4" /><polygon points="60.00,148.50 64.00,156.00 56.00,156.00" fill="#9467bd" /><polygon points="94.67,148.50 98.67,156.00 90.67,156.00" fill="#9467bd" /><polygon points="129.33,148.50 133.33,156.00 125.33,156.00" fill="#9467bd" /><polygon points="164.00,148.50 168.00,156.00 160.00,156.00" fill="#9467bd" /><polygon points="198.67,148.50 202.67,156.00 194.67,156.00" fill="#9467bd" /><polygon points="233.33,148.50 237.33,156.00 229.33,156.00" fill="#9467bd" /><polygon points="268.00,148.50 272.00,156.00 264.00,156.00" fill="#9467bd" /><polygon points="302.67,148.50 306.67,156.00 298.67,156.00" fill="#9467bd" /><polygon points="337.33,148.50 341.33,156.00 333.33,156.00" fill="#9467bd" /><polygon points="372.00,148.50 376.00,156.00 368.00,156.00" fill="#9467bd" /><polygon points="406.67,148.50 410.67,156.00 402.67,156.00" fill="#9467bd" /><polygon points="441.33,148.50 445.33,156.00 437.33,156.00" fill="#9467bd" /><polygon points="476.00,148.50 480.00,156.00 472.00,156.00" fill="#9467bd" /><polygon points="510.67,148.50 514.67,156.00 506.67,156.00" fill="#9467bd" /><polygon points="545.33,148.50 549.33,156.00 541.33,156.00" fill="#9467bd" /><polygon points="580.00,148.50 584.00,156.00 576.00,156.00" fill="#9467bd" /><path d="M 60.00,61.09 94.67,61.25 129.33,61.40 164.00,61.55 198.67,61.69 233.33,61.82 268.00,61.95 302.67,62.08 337.33,62.21 372.00,62.33 406.67,62.45 441.33,62.57 476.00,62.69 510.67,62.81 545.33,62.92 580.00,63.03" fill="none" stroke="#ff7f0e" stroke-width="2.4" /><polygon points="60.00,56.09 65.00,61.09 60.00,66.09 55.00,61.09" fill="#ff7f0e" /><polygon points="94.67,56.25 99.67,61.25 94.67,66.25 89.67,61.25" fill="#ff7f0e" /><polygon points="129.33,56.40 134.33,61.40 129.33,66.40 124.33,61.40" fill="#ff7f0e" /><polygon points="164.00,56.55 169.00,61.55 164.00,66.55 159.00,61.55" fill="#ff7f0e" /><polygon points="198.67,56.69 203.67,61.69 198.67,66.69 193.67,61.69" fill="#ff7f0e" /><polygon points="233.33,56.82 238.33,61.82 233.33,66.82 228.33,61.82" fill="#ff7f0e" /><polygon points="268.00,56.95 273.00,61.95 268.00,66.95 263.00,61.95" fill="#ff7f0e" /><polygon points="302.67,57.08 307.67,62.08 302.67,67.08 297.67,62.08" fill="#ff7f0e" /><polygon points="337.33,57.21 342.33,62.21 337.33,67.21 332.33,62.21" fill="#ff7f0e" /><polygon points="372.00,57.33 377.00,62.33 372.00,67.33 367.00,62.33" fill="#ff7f0e" /><polygon points="406.67,57.45 411.67,62.45 406.67,67.45 401.67,62.45" fill="#ff7f0e" /><polygon points="441.33,57.57 446.33,62.57 441.33,67.57 436.33,62.57" fill="#ff7f0e" /><polygon points="476.00,57.69 481.00,62.69 476.00,67.69 471.00,62.69" fill="#ff7f0e" /><polygon points="510.67,57.81 515.67,62.81 510.67,67.81 505.67,62.81" fill="#ff7f0e" /><polygon points="545.33,57.92 550.33,62.92 545.33,67.92 540.33,62.92" fill="#ff7f0e" /><polygon points="580.00,58.03 585.00,63.03 580.00,68.03 575.00,63.03" fill="#ff7f0e" /><path d="M 60.00,61.59 94.67,61.74 129.33,61.89 164.00,62.03 198.67,62.16 233.33,62.29 268.00,62.41 302.67,62.53 337.33,62.64 372.00,62.75 406.67,62.85 441.33,62.95 476.00,63.05 510.67,63.14 545.33,63.24 580.00,63.32" fill="none" stroke="#8c564b" stroke-width="2.2" stroke-dasharray="6,4,2,4" /><line x1="55.00" y1="56.59" x2="65.00" y2="66.59" stroke="#8c564b" stroke-width="1.50" /><line x1="55.00" y1="66.59" x2="65.00" y2="56.59" stroke="#8c564b" stroke-width="1.50" /><line x1="89.67" y1="56.74" x2="99.67" y2="66.74" stroke="#8c564b" stroke-width="1.50" /><line x1="89.67" y1="66.74" x2="99.67" y2="56.74" stroke="#8c564b" stroke-width="1.50" /><line x1="124.33" y1="56.89" x2="134.33" y2="66.89" stroke="#8c564b" stroke-width="1.50" /><line x1="124.33" y1="66.89" x2="134.33" y2="56.89" stroke="#8c564b" stroke-width="1.50" /><line x1="159.00" y1="57.03" x2="169.00" y2="67.03" stroke="#8c564b" stroke-width="1.50" /><line x1="159.00" y1="67.03" x2="169.00" y2="57.03" stroke="#8c564b" stroke-width="1.50" /><line x1="193.67" y1="57.16" x2="203.67" y2="67.16" stroke="#8c564b" stroke-width="1.50" /><line x1="193.67" y1="67.16" x2="203.67" y2="57.16" stroke="#8c564b" stroke-width="1.50" /><line x1="228.33" y1="57.29" x2="238.33" y2="67.29" stroke="#8c564b" stroke-width="1.50" /><line x1="228.33" y1="67.29" x2="238.33" y2="57.29" stroke="#8c564b" stroke-width="1.50" /><line x1="263.00" y1="57.41" x2="273.00" y2="67.41" stroke="#8c564b" stroke-width="1.50" /><line x1="263.00" y1="67.41" x2="273.00" y2="57.41" stroke="#8c564b" stroke-width="1.50" /><line x1="297.67" y1="57.53" x2="307.67" y2="67.53" stroke="#8c564b" stroke-width="1.50" /><line x1="297.67" y1="67.53" x2="307.67" y2="57.53" stroke="#8c564b" stroke-width="1.50" /><line x1="332.33" y1="57.64" x2="342.33" y2="67.64" stroke="#8c564b" stroke-width="1.50" /><line x1="332.33" y1="67.64" x2="342.33" y2="57.64" stroke="#8c564b" stroke-width="1.50" /><line x1="367.00" y1="57.75" x2="377.00" y2="67.75" stroke="#8c564b" stroke-width="1.50" /><line x1="367.00" y1="67.75" x2="377.00" y2="57.75" stroke="#8c564b" stroke-width="1.50" /><line x1="401.67" y1="57.85" x2="411.67" y2="67.85" stroke="#8c564b" stroke-width="1.50" /><line x1="401.67" y1="67.85" x2="411.67" y2="57.85" stroke="#8c564b" stroke-width="1.50" /><line x1="436.33" y1="57.95" x2="446.33" y2="67.95" stroke="#8c564b" stroke-width="1.50" /><line x1="436.33" y1="67.95" x2="446.33" y2="57.95" stroke="#8c564b" stroke-width="1.50" /><line x1="471.00" y1="58.05" x2="481.00" y2="68.05" stroke="#8c564b" stroke-width="1.50" /><line x1="471.00" y1="68.05" x2="481.00" y2="58.05" stroke="#8c564b" stroke-width="1.50" /><line x1="505.67" y1="58.14" x2="515.67" y2="68.14" stroke="#8c564b" stroke-width="1.50" /><line x1="505.67" y1="68.14" x2="515.67" y2="58.14" stroke="#8c564b" stroke-width="1.50" /><line x1="540.33" y1="58.24" x2="550.33" y2="68.24" stroke="#8c564b" stroke-width="1.50" /><line x1="540.33" y1="68.24" x2="550.33" y2="58.24" stroke="#8c564b" stroke-width="1.50" /><line x1="575.00" y1="58.32" x2="585.00" y2="68.32" stroke="#8c564b" stroke-width="1.50" /><line x1="575.00" y1="68.32" x2="585.00" y2="58.32" stroke="#8c564b" stroke-width="1.50" /><path d="M 60.00,60.00 94.67,60.17 129.33,60.35 164.00,60.55 198.67,60.76 233.33,60.97 268.00,61.19 302.67,61.40 337.33,61.62 372.00,61.84 406.67,62.05 441.33,62.27 476.00,62.48 510.67,62.69 545.33,62.90 580.00,63.11" fill="none" stroke="#d62728" stroke-width="1.6" stroke-dasharray="4,6" /><line x1="430.00" y1="60.00" x2="450.00" y2="60.00" stroke="#1f77b4" stroke-width="2.50" /><circle cx="440.00" cy="60.00" r="2.40" fill="#1f77b4" /><text x="455.00" y="64.00" font-size="12" font-family="Arial, sans-serif">Tutte</text><line x1="430.00" y1="78.00" x2="450.00" y2="78.00" stroke="#2ca02c" stroke-width="2.40" stroke-dasharray="6,4" /><rect x="437.60" y="75.60" width="4.80" height="4.80" fill="#2ca02c" /><text x="455.00" y="82.00" font-size="12" font-family="Arial, sans-serif">Low-band projector</text><line x1="430.00" y1="96.00" x2="450.00" y2="96.00" stroke="#9467bd" stroke-width="2.40" stroke-dasharray="2,4" /><polygon points="440.00,92.80 443.20,98.80 436.80,98.80" fill="#9467bd" /><text x="455.00" y="100.00" font-size="12" font-family="Arial, sans-serif">Laplacian eigenmaps</text><line x1="430.00" y1="114.00" x2="450.00" y2="114.00" stroke="#ff7f0e" stroke-width="2.40" /><polygon points="440.00,110.00 444.00,114.00 440.00,118.00 436.00,114.00" fill="#ff7f0e" /><text x="455.00" y="118.00" font-size="12" font-family="Arial, sans-serif">Diffusion coordinates</text><line x1="430.00" y1="132.00" x2="450.00" y2="132.00" stroke="#8c564b" stroke-width="2.20" stroke-dasharray="6,4,2,4" /><line x1="436.00" y1="128.00" x2="444.00" y2="136.00" stroke="#8c564b" stroke-width="1.50" /><line x1="436.00" y1="136.00" x2="444.00" y2="128.00" stroke="#8c564b" stroke-width="1.50" /><text x="455.00" y="136.00" font-size="12" font-family="Arial, sans-serif">Smoothed random</text><line x1="430.00" y1="150.00" x2="450.00" y2="150.00" stroke="#d62728" stroke-width="1.60" stroke-dasharray="4,6" /><text x="455.00" y="154.00" font-size="12" font-family="Arial, sans-serif">Random</text><text x="280.00" y="30.00" font-size="14" font-family="Arial, sans-serif">(b) Representation error vs. depth</text><text x="300.00" y="410.00" font-size="12" font-family="Arial, sans-serif">Diffusion depth T</text><text x="5.00" y="210.00" font-size="12" font-family="Arial, sans-serif">‖ŷ_T* − y‖</text><circle cx="337.33" cy="345.63" r="2.70" fill="#000000" /><text x="342.33" y="335.63" font-size="12" font-family="Arial, sans-serif">Tutte knee (T≈8)</text><text x="60.00" y="390.00" font-size="11" font-family="Arial, sans-serif">Figure 2. Representation error as a function of GNN depth. Tutte embeddings exhibit rapid decay up to T≈8 before over-smoothing, while misaligned features show marginal gains.</text></svg>