<?xml version='1.0' encoding='utf-8'?>
<svg xmlns="http://www.w3.org/2000/svg" width="720" height="440" viewBox="0 0 720 440"><line x1="70.00" y1="70.00" x2="70.00" y2="370.00" stroke="black" stroke-width="1.00" /><line x1="70.00" y1="370.00" x2="650.00" y2="370.00" stroke="black" stroke-width="1.00" /><line x1="650.00" y1="70.00" x2="650.00" y2="370.00" stroke="black" stroke-width="1.00" /><line x1="64.00" y1="370.00" x2="70.00" y2="370.00" stroke="black" stroke-width="1.00" /><text x="10.00" y="375.00" font-size="12" font-family="Arial, sans-serif">1e0</text><line x1="64.00" y1="270.00" x2="70.00" y2="270.00" stroke="black" stroke-width="1.00" /><text x="10.00" y="275.00" font-size="12" font-family="Arial, sans-serif">1e1</text><line x1="64.00" y1="170.00" x2="70.00" y2="170.00" stroke="black" stroke-width="1.00" /><text x="10.00" y="175.00" font-size="12" font-family="Arial, sans-serif">1e2</text><line x1="64.00" y1="70.00" x2="70.00" y2="70.00" stroke="black" stroke-width="1.00" /><text x="10.00" y="75.00" font-size="12" font-family="Arial, sans-serif">1e3</text><line x1="650.00" y1="370.00" x2="656.00" y2="370.00" stroke="black" stroke-width="1.00" /><text x="660.00" y="375.00" font-size="12" font-family="Arial, sans-serif">0.00</text><line x1="650.00" y1="295.00" x2="656.00" y2="295.00" stroke="black" stroke-width="1.00" /><text x="660.00" y="300.00" font-size="12" font-family="Arial, sans-serif">0.25</text><line x1="650.00" y1="220.00" x2="656.00" y2="220.00" stroke="black" stroke-width="1.00" /><text x="660.00" y="225.00" font-size="12" font-family="Arial, sans-serif">0.49</text><line x1="650.00" y1="145.00" x2="656.00" y2="145.00" stroke="black" stroke-width="1.00" /><text x="660.00" y="150.00" font-size="12" font-family="Arial, sans-serif">0.74</text><line x1="650.00" y1="70.00" x2="656.00" y2="70.00" stroke="black" stroke-width="1.00" /><text x="660.00" y="75.00" font-size="12" font-family="Arial, sans-serif">0.98</text><rect x="93.48" y="285.44" width="69.05" height="84.56" fill="#1f77b4" /><rect x="186.28" y="287.07" width="69.05" height="82.93" fill="#2ca02c" /><rect x="279.08" y="294.86" width="69.05" height="75.14" fill="#9467bd" /><rect x="371.88" y="132.77" width="69.05" height="237.23" fill="#ff7f0e" /><rect x="464.68" y="148.52" width="69.05" height="221.48" fill="#8c564b" /><rect x="557.48" y="76.18" width="69.05" height="293.82" fill="#d62728" /><path d="M 128.00,369.76 220.80,370.00 313.60,370.00 406.40,253.92 499.20,288.09 592.00,97.27" fill="none" stroke="#333333" stroke-width="2" stroke-dasharray="4,4" /><circle cx="128.00" cy="369.76" r="2.40" fill="#1f77b4" /><circle cx="220.80" cy="370.00" r="2.40" fill="#2ca02c" /><circle cx="313.60" cy="370.00" r="2.40" fill="#9467bd" /><circle cx="406.40" cy="253.92" r="2.40" fill="#ff7f0e" /><circle cx="499.20" cy="288.09" r="2.40" fill="#8c564b" /><circle cx="592.00" cy="97.27" r="2.40" fill="#d62728" /><text x="88.00" y="390.00" font-size="11" font-family="Arial, sans-serif">Tutte</text><text x="180.80" y="390.00" font-size="11" font-family="Arial, sans-serif">Low-band projector</text><text x="273.60" y="390.00" font-size="11" font-family="Arial, sans-serif">Laplacian eigenmaps</text><text x="366.40" y="390.00" font-size="11" font-family="Arial, sans-serif">Diffusion coordinates</text><text x="459.20" y="390.00" font-size="11" font-family="Arial, sans-serif">Smoothed random</text><text x="552.00" y="390.00" font-size="11" font-family="Arial, sans-serif">Random</text><text x="240.00" y="35.00" font-size="15" font-family="Arial, sans-serif">(a) Spectral smoothness and tail energy</text><text x="70.00" y="45.00" font-size="12" font-family="Arial, sans-serif">Dirichlet energy (bars, log₁₀ scale)</text><text x="500.00" y="45.00" font-size="12" font-family="Arial, sans-serif">Tail ratio (line)</text><text x="70.00" y="415.00" font-size="11" font-family="Arial, sans-serif">Figure 1. Dirichlet energy and spectral tail ratio of different embeddings. Low energy strongly correlates with limited high-frequency content, confirming that Tutte and Laplacian-based embeddings occupy the low band below λ_c ≈ 0.97.</text></svg>