<?xml version='1.0' encoding='utf-8'?>
<svg xmlns="http://www.w3.org/2000/svg" width="640" height="400" viewBox="0 0 640 400"><line x1="60.00" y1="60.00" x2="60.00" y2="340.00" stroke="black" stroke-width="1.00" /><line x1="60.00" y1="340.00" x2="580.00" y2="340.00" stroke="black" stroke-width="1.00" /><line x1="60.00" y1="340.00" x2="60.00" y2="345.00" stroke="black" stroke-width="1.00" /><text x="50.00" y="360.00" font-size="12" font-family="Arial, sans-serif">0</text><line x1="190.00" y1="340.00" x2="190.00" y2="345.00" stroke="black" stroke-width="1.00" /><text x="180.00" y="360.00" font-size="12" font-family="Arial, sans-serif">4</text><line x1="320.00" y1="340.00" x2="320.00" y2="345.00" stroke="black" stroke-width="1.00" /><text x="310.00" y="360.00" font-size="12" font-family="Arial, sans-serif">8</text><line x1="450.00" y1="340.00" x2="450.00" y2="345.00" stroke="black" stroke-width="1.00" /><text x="440.00" y="360.00" font-size="12" font-family="Arial, sans-serif">11</text><line x1="580.00" y1="340.00" x2="580.00" y2="345.00" stroke="black" stroke-width="1.00" /><text x="570.00" y="360.00" font-size="12" font-family="Arial, sans-serif">15</text><line x1="55.00" y1="371.79" x2="60.00" y2="371.79" stroke="black" stroke-width="1.00" /><text x="10.00" y="376.79" font-size="12" font-family="Arial, sans-serif">1e-2</text><line x1="55.00" y1="268.61" x2="60.00" y2="268.61" stroke="black" stroke-width="1.00" /><text x="10.00" y="273.61" font-size="12" font-family="Arial, sans-serif">1e-1</text><line x1="55.00" y1="165.42" x2="60.00" y2="165.42" stroke="black" stroke-width="1.00" /><text x="10.00" y="170.42" font-size="12" font-family="Arial, sans-serif">1e0</text><line x1="55.00" y1="62.23" x2="60.00" y2="62.23" stroke="black" stroke-width="1.00" /><text x="10.00" y="67.23" font-size="12" font-family="Arial, sans-serif">1e1</text><line x1="55.00" y1="-40.96" x2="60.00" y2="-40.96" stroke="black" stroke-width="1.00" /><text x="10.00" y="-35.96" font-size="12" font-family="Arial, sans-serif">1e2</text><path d="M 60.00,240.22 94.67,248.74 129.33,258.21 164.00,269.10 198.67,282.20 233.33,298.81 268.00,320.66 302.67,340.00 337.33,326.59 372.00,306.08 406.67,290.91 441.33,279.59 476.00,270.73 510.67,263.51 545.33,257.45 580.00,252.26" fill="none" stroke="#4169E1" stroke-width="2" /><path d="M 60.00,60.00 94.67,60.16 129.33,60.33 164.00,60.52 198.67,60.71 233.33,60.91 268.00,61.11 302.67,61.31 337.33,61.51 372.00,61.71 406.67,61.92 441.33,62.12 476.00,62.31 510.67,62.51 545.33,62.71 580.00,62.90" fill="none" stroke="#FFA500" stroke-width="2" /><path d="M 60.00,241.72 94.67,241.72 129.33,241.72 164.00,241.72 198.67,241.72 233.33,241.72 268.00,241.72 302.67,241.72 337.33,241.72 372.00,241.72 406.67,241.72 441.33,241.72 476.00,241.72 510.67,241.72 545.33,241.72 580.00,241.72" fill="none" stroke="#808080" stroke-width="2" /><line x1="460.00" y1="60.00" x2="480.00" y2="60.00" stroke="#4169E1" stroke-width="2.00" /><text x="485.00" y="64.00" font-size="12" font-family="Arial, sans-serif">Tutte</text><line x1="460.00" y1="78.00" x2="480.00" y2="78.00" stroke="#FFA500" stroke-width="2.00" /><text x="485.00" y="82.00" font-size="12" font-family="Arial, sans-serif">Random</text><line x1="460.00" y1="96.00" x2="480.00" y2="96.00" stroke="#808080" stroke-width="2.00" /><text x="485.00" y="100.00" font-size="12" font-family="Arial, sans-serif">Low-band projection</text><text x="280.00" y="30.00" font-size="14" font-family="Arial, sans-serif">Representation error vs depth</text><text x="300.00" y="390.00" font-size="12" font-family="Arial, sans-serif">Depth T</text><text x="5.00" y="200.00" font-size="12" font-family="Arial, sans-serif">Error norm (log)</text></svg>